<?xml version="1.0" standalone="no"?>
<!DOCTYPE svg PUBLIC "-//W3C//DTD SVG 20010904//EN"
 "http://www.w3.org/TR/2001/REC-SVG-20010904/DTD/svg10.dtd">
<svg version="1.0" xmlns="http://www.w3.org/2000/svg"
 width="577.000000pt" height="433.000000pt" viewBox="0 0 577.000000 433.000000"
 preserveAspectRatio="xMidYMid meet">

<g transform="translate(0.000000,433.000000) scale(0.100000,-0.100000)"
fill="#000000" stroke="none">
<path d="M2708 3965 c-2 -2 -28 -6 -58 -9 -66 -8 -171 -31 -259 -57 -35 -10
-69 -19 -75 -19 -6 -1 -29 -9 -51 -20 -22 -11 -43 -19 -48 -20 -8 0 -72 -28
-147 -63 -61 -29 -199 -115 -231 -144 -14 -13 -29 -23 -35 -23 -5 0 -17 -8
-25 -17 -9 -10 -29 -27 -45 -38 -37 -25 -214 -203 -214 -216 0 -5 -4 -9 -9 -9
-5 0 -34 -35 -65 -77 -30 -43 -69 -96 -85 -118 -16 -22 -42 -67 -58 -100 -16
-33 -34 -69 -41 -80 -29 -51 -72 -151 -72 -168 0 -10 -6 -30 -14 -45 -7 -15
-21 -58 -30 -97 -10 -38 -22 -87 -27 -109 -23 -91 -33 -202 -33 -366 0 -167
10 -280 31 -365 8 -33 16 -69 18 -80 10 -53 38 -145 56 -190 75 -180 139 -307
172 -340 9 -9 17 -20 17 -24 0 -13 107 -154 149 -197 23 -23 41 -46 41 -50 0
-5 11 -18 25 -29 13 -11 44 -38 68 -60 24 -22 58 -51 76 -65 17 -14 46 -37 64
-52 17 -15 46 -34 63 -43 17 -8 37 -21 44 -30 7 -8 19 -15 26 -15 8 0 14 -4
14 -8 0 -11 239 -125 325 -155 217 -75 378 -102 610 -102 210 0 383 27 570 90
111 37 339 143 370 172 11 11 36 28 55 39 38 21 106 69 131 93 9 9 31 27 49
41 46 35 160 149 160 161 0 5 7 9 15 9 8 0 15 7 15 15 0 14 12 19 33 16 4 0 7
8 7 19 0 11 5 20 10 20 6 0 10 5 10 11 0 6 8 21 17 34 28 36 65 92 110 164 19
31 77 146 104 206 33 73 89 250 91 285 1 8 5 17 9 20 5 3 9 21 10 40 2 19 5
40 8 45 8 15 10 30 18 150 12 164 7 334 -11 445 -3 14 -7 43 -11 65 -4 22 -10
49 -15 60 -5 11 -14 45 -21 75 -11 48 -52 170 -91 268 -7 17 -16 32 -20 32 -4
0 -8 4 -8 10 0 17 -34 90 -42 90 -5 0 -8 6 -8 14 0 8 -5 16 -11 18 -5 2 -11
10 -12 18 -3 19 -86 144 -98 148 -5 2 -9 9 -9 15 0 7 -24 37 -53 69 -71 77
-87 97 -87 108 0 6 -5 10 -11 10 -6 0 -25 15 -42 33 -43 44 -162 137 -176 137
-6 0 -11 3 -11 8 0 12 -169 125 -225 151 -11 5 -46 21 -77 35 -31 14 -60 26
-65 26 -4 0 -26 9 -48 19 -39 20 -135 52 -165 55 -8 2 -22 5 -30 9 -18 7 -111
26 -158 32 -19 2 -58 9 -88 14 -46 9 -367 14 -376 6z"/>
</g>
</svg>
